<?xml version="1.0" encoding="UTF-8"?>
<svg width="23px" height="20px" viewBox="0 0 23 20" version="1.1" xmlns="http://www.w3.org/2000/svg" xmlns:xlink="http://www.w3.org/1999/xlink">
    <!-- Generator: Sketch 52.6 (67491) - http://www.bohemiancoding.com/sketch -->
    <title>Shape</title>
    <desc>Created with Sketch.</desc>
    <g id="Mobile-/-Next" stroke="none" stroke-width="1" fill="none" fill-rule="evenodd">
        <g id="Home-Mobile" transform="translate(-323.000000, -26.000000)" fill="#1452A3" fill-rule="nonzero">
            <g id="HEADER" transform="translate(20.000000, 16.000000)">
                <g id="Group-7" transform="translate(295.000000, 0.000000)">
                    <g id="noun_Shopping-Cart_1307047" transform="translate(8.000000, 10.000000)">
                        <g id="Group">
                            <g id="Shape">
                                <path d="M19.9387973,17.6766175 C19.9387973,18.4670526 19.2953216,19.1100709 18.504379,19.1100709 C17.713481,19.1100709 17.0700053,18.4670526 17.0700053,17.6766175 C17.0700053,16.8861825 17.713481,16.2431197 18.504379,16.2431197 C19.2953216,16.2431197 19.9387973,16.8861825 19.9387973,17.6766175 Z M9.09348006,17.6766175 C9.09348006,18.4670526 8.45000434,19.1100709 7.65906175,19.1100709 C6.86811916,19.1100709 6.22468797,18.4670526 6.22468797,17.6766175 C6.22468797,16.8861825 6.86811916,16.2431197 7.65906175,16.2431197 C8.45000434,16.2431197 9.09348006,16.8861825 9.09348006,17.6766175 Z M5.13119781,5.47938256 L21.0596259,7.05927373 L19.4305887,12.1978579 L6.64095245,12.1978579 L5.13119781,5.47938256 Z M4.69641091,3.54463217 L13.2883165,4.34694776 L21.6712662,5.12968492 L21.3344789,6.19221578 L4.92562576,4.56466893 L4.69641091,3.54463217 Z M22.6336301,4.4921397 C22.5592733,4.38000863 22.4380317,4.3075239 22.3039668,4.29497589 L4.49008194,2.63156489 L3.96833766,0.346004441 C3.92212068,0.143590064 3.7419724,0 3.53421863,0 L0.44525028,0 C0.199383076,0 0,0.19925513 0,0.444964559 C0,0.690718484 0.199383076,0.889929117 0.44525028,0.889929117 L3.17913152,0.889929117 L3.69326202,3.14198374 C3.69326202,3.14202823 3.69330655,3.14207273 3.69330655,3.14211724 L4.12724747,5.07326342 C4.127292,5.0733969 4.127292,5.07348589 4.12733652,5.07361938 L5.85018797,12.7403142 C5.8958261,12.9434406 6.07628605,13.0877871 6.28461866,13.0877871 L19.1484781,13.0877871 L18.4302894,15.3531906 L7.65906175,15.3531906 C6.37714166,15.3531906 5.33418741,16.3954756 5.33418741,17.6766175 C5.33418741,18.957715 6.37714166,20 7.65906175,20 C8.94102636,20 9.98398061,18.957715 9.98398061,17.6766175 C9.98398061,17.1359856 9.79773242,16.6382928 9.4867251,16.2431197 L16.6768047,16.2431197 C16.3657529,16.6382928 16.1795047,17.1359856 16.1795047,17.6766175 C16.1795047,18.957715 17.2224589,20 18.504379,20 C19.7863437,20 20.8292979,18.957715 20.8292979,17.6766175 C20.8292979,16.6813653 20.199714,15.8305486 19.3178068,15.5002959 L22.6870156,4.87240641 C22.727667,4.74407864 22.7080315,4.60431527 22.6336301,4.4921397 Z"></path>
                            </g>
                        </g>
                    </g>
                </g>
            </g>
        </g>
    </g>
</svg>