<?xml version="1.0" encoding="UTF-8"?>
<svg width="18px" height="10px" viewBox="0 0 18 10" version="1.1" xmlns="http://www.w3.org/2000/svg" xmlns:xlink="http://www.w3.org/1999/xlink">
    <!-- Generator: Sketch 52.6 (67491) - http://www.bohemiancoding.com/sketch -->
    <title>Path</title>
    <desc>Created with Sketch.</desc>
    <g id="Working-File" stroke="none" stroke-width="1" fill="none" fill-rule="evenodd">
        <g id="FAQ" transform="translate(-1371.000000, -892.000000)" fill="#1452A3">
            <g id="Group-9" transform="translate(698.000000, 558.000000)">
                <g id="Group-4">
                    <g id="3" transform="translate(0.000000, 317.000000)">
                        <path d="M677.768728,30.5187285 C677.569662,30.5196684 677.378612,30.4403647 677.238728,30.2987285 C676.946275,30.0059109 676.946275,29.531546 677.238728,29.2387285 L684.708728,21.7687285 L677.238728,14.2987285 C677.038075,14.1117579 676.955479,13.8301729 677.023343,13.5644395 C677.091207,13.2987062 677.298706,13.0912066 677.56444,13.0233429 C677.830173,12.9554793 678.111758,13.0380753 678.298728,13.2387285 L686.298728,21.2387285 C686.591182,21.531546 686.591182,22.0059109 686.298728,22.2987285 L678.298728,30.2987285 C678.158845,30.4403647 677.967795,30.5196684 677.768728,30.5187285 Z" id="Path" transform="translate(681.759034, 21.759368) rotate(90.000000) translate(-681.759034, -21.759368) "></path>
                    </g>
                </g>
            </g>
        </g>
    </g>
</svg>