<?xml version="1.0" encoding="UTF-8"?>
<svg width="75px" height="75px" viewBox="0 0 75 75" version="1.1" xmlns="http://www.w3.org/2000/svg" xmlns:xlink="http://www.w3.org/1999/xlink">
    <!-- Generator: Sketch 52.6 (67491) - http://www.bohemiancoding.com/sketch -->
    <title>Oval</title>
    <desc>Created with Sketch.</desc>
    <g id="Oval" stroke="none" stroke-width="1" fill="none" fill-rule="evenodd">
        <path d="M8.52656431,44.9999943 C8.39020759,45.0006382 8.25934221,44.9463167 8.16352443,44.8492985 C7.96319945,44.6487241 7.96319945,44.3237932 8.16352443,44.1232188 L13.2803317,39.0064115 L8.16352443,33.8896042 C8.02608084,33.7615329 7.96950415,33.5686526 8.01598945,33.3866303 C8.06247474,33.204608 8.20460803,33.0624747 8.38663031,33.0159894 C8.56865259,32.9695042 8.76153291,33.0260808 8.88960418,33.1635244 L14.3694514,38.6433716 C14.5697763,38.843946 14.5697763,39.1688769 14.3694514,39.3694514 L8.88960418,44.8492985 C8.7937864,44.9463167 8.66292102,45.0006382 8.52656431,44.9999943 Z" id="Path" stroke="#FFFFFF" stroke-width="0.5" fill="#FFFFFF" transform="translate(11.259848, 39.000000) scale(-1, 1) translate(-11.259848, -39.000000) "></path>
        <path d="M59.5265643,44.9999943 C59.3902076,45.0006382 59.2593422,44.9463167 59.1635244,44.8492985 C58.9631995,44.6487241 58.9631995,44.3237932 59.1635244,44.1232188 L64.2803317,39.0064115 L59.1635244,33.8896042 C59.0260808,33.7615329 58.9695042,33.5686526 59.0159894,33.3866303 C59.0624747,33.204608 59.204608,33.0624747 59.3866303,33.0159894 C59.5686526,32.9695042 59.7615329,33.0260808 59.8896042,33.1635244 L65.3694514,38.6433716 C65.5697763,38.843946 65.5697763,39.1688769 65.3694514,39.3694514 L59.8896042,44.8492985 C59.7937864,44.9463167 59.662921,45.0006382 59.5265643,44.9999943 Z" id="Path-Copy" stroke="#FFFFFF" stroke-width="0.5" fill="#FFFFFF"></path>
    </g>
</svg>