<?xml version="1.0" encoding="UTF-8"?>
<svg width="16px" height="16px" viewBox="0 0 16 16" version="1.1" xmlns="http://www.w3.org/2000/svg" xmlns:xlink="http://www.w3.org/1999/xlink">
    <!-- Generator: Sketch 52.6 (67491) - http://www.bohemiancoding.com/sketch -->
    <title>Shape</title>
    <desc>Created with Sketch.</desc>
    <g id="Working-File" stroke="none" stroke-width="1" fill="none" fill-rule="evenodd">
        <g id="Homepage-Condensed" transform="translate(-963.000000, -7978.000000)" fill="#FFFFFF">
            <g id="Footer" transform="translate(0.000000, 7739.000000)">
                <g id="Group-21" transform="translate(821.000000, 90.000000)">
                    <g id="Group-31" transform="translate(0.000000, 137.000000)">
                        <g id="Group-15" transform="translate(129.382716, 0.000000)">
                            <path d="M20.2468989,14.1742012 C22.2247715,14.1742012 22.4590312,14.1817286 23.2401124,14.2173659 C23.9623273,14.2503275 24.3545439,14.3710005 24.6155904,14.472414 C24.9613197,14.6067892 25.2081054,14.7673336 25.4672995,15.0265277 C25.7264935,15.2857218 25.887038,15.5325074 26.0213837,15.8782367 C26.1228267,16.1392832 26.2434997,16.5314998 26.2764613,17.2536853 C26.3120986,18.034796 26.319626,18.2690556 26.319626,20.2469283 C26.319626,22.2248009 26.3120986,22.4590606 26.2764613,23.2401418 C26.2434997,23.9623567 26.1228267,24.3545734 26.0213837,24.6156198 C25.887038,24.9613491 25.7264935,25.2081348 25.4672995,25.4673289 C25.2081054,25.7265229 24.9613197,25.8870674 24.6155904,26.0214131 C24.3545439,26.1228561 23.9623273,26.2435291 23.2401124,26.2764907 C22.4591488,26.312128 22.2248891,26.3196554 20.2468989,26.3196554 C18.2689086,26.3196554 18.0346489,26.312128 17.2536853,26.2764907 C16.5314704,26.2435291 16.1392538,26.1228561 15.8782367,26.0214131 C15.532478,25.8870674 15.2856923,25.7265229 15.0264983,25.4673289 C14.7673042,25.2081348 14.6067598,24.9613491 14.472414,24.6156198 C14.3709711,24.3545734 14.2502981,23.9623567 14.2173365,23.2401712 C14.1816992,22.4590606 14.1741718,22.2248009 14.1741718,20.2469283 C14.1741718,18.2690556 14.1816992,18.034796 14.2173365,17.2537147 C14.2502981,16.5314998 14.3709711,16.1392832 14.472414,15.8782367 C14.6067598,15.5325074 14.7673042,15.2857218 15.0264983,15.0265277 C15.2856923,14.7673336 15.532478,14.6067892 15.8782367,14.472414 C16.1392538,14.3710005 16.5314704,14.2503275 17.2536559,14.2173659 C18.0347666,14.1817286 18.2690262,14.1742012 20.2468989,14.1742012 M20.2468989,12.8395062 C22.2586446,12.8395062 22.5108994,12.8480333 23.3009488,12.8840823 C24.0894103,12.9200724 24.6278518,13.0452736 25.0990469,13.2284002 C25.5861494,13.4177015 25.9992427,13.6709854 26.4110422,14.0827849 C26.8228417,14.4945845 27.0761256,14.9076777 27.265427,15.3947803 C27.4485535,15.8659754 27.5737547,16.4044168 27.6097449,17.1928784 C27.6457939,17.9829277 27.654321,18.2351825 27.654321,20.2469283 C27.654321,22.2586741 27.6457939,22.5109288 27.6097449,23.3009782 C27.5737547,24.0894397 27.4485535,24.6278812 27.265427,25.0990763 C27.0761256,25.5861788 26.8228417,25.9992721 26.4110422,26.4110716 C25.9992427,26.8228711 25.5861494,27.0761551 25.0990469,27.2654564 C24.6278518,27.4485829 24.0894103,27.5737841 23.3009488,27.6097743 C22.5108994,27.6458233 22.2586446,27.654321 20.2468989,27.654321 C18.2351531,27.654321 17.9829277,27.6458233 17.192849,27.6097743 C16.4043874,27.5737841 15.865946,27.4485829 15.3947509,27.2654564 C14.9076483,27.0761551 14.4945551,26.8228711 14.0827555,26.4110716 C13.670956,25.9992721 13.4176721,25.5861494 13.2283708,25.0990763 C13.0452442,24.6278812 12.920043,24.0894397 12.8840529,23.3009782 C12.8480039,22.5109288 12.8395062,22.2586741 12.8395062,20.2469283 C12.8395062,18.2351825 12.8480039,17.9829277 12.8840529,17.1928784 C12.920043,16.4044168 13.0452442,15.8659754 13.2283708,15.3947803 C13.4176721,14.9076777 13.670956,14.4945845 14.0827555,14.0827849 C14.4945551,13.6709854 14.9076483,13.4177015 15.3947509,13.2284002 C15.865946,13.0452736 16.4043874,12.9200724 17.192849,12.8840823 C17.9829277,12.8480333 18.2351531,12.8395062 20.2468989,12.8395062 Z M20.2616108,16.4550265 C18.1593016,16.4550265 16.4550265,18.1593016 16.4550265,20.2616108 C16.4550265,22.36392 18.1593016,24.0681952 20.2616108,24.0681952 C22.36392,24.0681952 24.0681952,22.36392 24.0681952,20.2616108 C24.0681952,18.1593016 22.36392,16.4550265 20.2616108,16.4550265 Z M20.2616108,22.7325583 C18.8969607,22.7325583 17.7906634,21.6262609 17.7906634,20.2616108 C17.7906634,18.8969607 18.8969607,17.7906634 20.2616108,17.7906634 C21.6262609,17.7906634 22.7325583,18.8969607 22.7325583,20.2616108 C22.7325583,21.6262609 21.6262609,22.7325583 20.2616108,22.7325583 Z M25.0676073,16.278645 C25.0676073,15.7916169 24.6728158,15.3968254 24.1857877,15.3968254 C23.6987595,15.3968254 23.3039389,15.7916169 23.3039389,16.278645 C23.3039389,16.7656732 23.6987595,17.1604938 24.1857877,17.1604938 C24.6728158,17.1604938 25.0676073,16.7656732 25.0676073,16.278645 Z" id="Shape"></path>
                        </g>
                    </g>
                </g>
            </g>
        </g>
    </g>
</svg>