<?xml version="1.0" encoding="UTF-8"?>
<svg width="15px" height="14px" viewBox="0 0 15 14" version="1.1" xmlns="http://www.w3.org/2000/svg" xmlns:xlink="http://www.w3.org/1999/xlink">
    <!-- Generator: Sketch 52.6 (67491) - http://www.bohemiancoding.com/sketch -->
    <title>Shape</title>
    <desc>Created with Sketch.</desc>
    <g id="Working-File" stroke="none" stroke-width="1" fill="none" fill-rule="evenodd">
        <g id="Homepage-Condensed" transform="translate(-898.000000, -7980.000000)" fill="#FFFFFF">
            <g id="Footer" transform="translate(0.000000, 7739.000000)">
                <g id="Group-21" transform="translate(821.000000, 90.000000)">
                    <g id="Group-31" transform="translate(0.000000, 137.000000)">
                        <g id="Group-12" transform="translate(63.703704, 0.000000)">
                            <path d="M26.0398827,16.7666198 C26.6502705,16.3814303 27.118629,15.7706553 27.3384362,15.0430752 C26.7669374,15.4006238 26.1354143,15.6592001 25.4616206,15.7991879 C24.9239382,15.1928711 24.1554583,14.8148148 23.3049734,14.8148148 C21.6733273,14.8148148 20.3511022,16.210235 20.3511022,17.9311046 C20.3511022,18.1754146 20.3756192,18.4134831 20.4263439,18.6408518 C17.9712661,18.5106721 15.794329,17.2712893 14.3359925,15.3845742 C14.0815234,15.8464449 13.9361124,16.3814303 13.9361124,16.9520814 C13.9361124,18.0327518 14.4577319,18.986809 15.2507288,19.5467604 C14.7663075,19.5307108 14.3106301,19.3889397 13.9115955,19.1571127 L13.9115955,19.1954533 C13.9115955,20.7058954 14.9294721,21.9657859 16.2829774,22.2511114 C16.0344262,22.3242261 15.7740391,22.3607834 15.5035071,22.3607834 C15.3132893,22.3607834 15.1272986,22.3420589 14.9480711,22.3055016 C15.3234343,23.5431011 16.4148618,24.4454431 17.7083428,24.4695174 C16.6963841,25.3058779 15.4223475,25.8034143 14.0384073,25.8034143 C13.800001,25.8034143 13.5641309,25.7900396 13.3333333,25.7606154 C14.6411864,26.6442329 16.1942091,27.1604938 17.8630533,27.1604938 C23.2990555,27.1604938 26.2698349,22.411607 26.2698349,18.2931114 C26.2698349,18.1575817 26.2681441,18.0229437 26.2622262,17.890089 C26.8396429,17.4505094 27.3418179,16.9012578 27.7366255,16.2762165 C27.2065519,16.5240931 26.6367439,16.6917218 26.0398827,16.7666198 Z" id="Shape"></path>
                        </g>
                    </g>
                </g>
            </g>
        </g>
    </g>
</svg>